Coordinates
version=1
nRows=11
nColumns=63
inDegrees=yes

Units are S.I. units (second, meters, Newtons, ...)
If the header above contains a line with 'inDegrees', this indicates whether rotational values are in degrees (yes) or radians (no).

endheader
time	pelvis_tilt	pelvis_list	pelvis_rotation	pelvis_tx	pelvis_ty	pelvis_tz	hip_flexion_r	hip_adduction_r	hip_rotation_r	knee_angle_r	knee_angle_r_beta	ankle_angle_r	subtalar_angle_r	mtp_angle_r	hip_flexion_l	hip_adduction_l	hip_rotation_l	knee_angle_l	knee_angle_l_beta	ankle_angle_l	subtalar_angle_l	mtp_angle_l	L5_S1_Flex_Ext	L5_S1_Lat_Bending	L5_S1_axial_rotation	L4_L5_Flex_Ext	L4_L5_Lat_Bending	L4_L5_axial_rotation	L3_L4_Flex_Ext	L3_L4_Lat_Bending	L3_L4_axial_rotation	L2_L3_Flex_Ext	L2_L3_Lat_Bending	L2_L3_axial_rotation	L1_L2_Flex_Ext	L1_L2_Lat_Bending	L1_L2_axial_rotation	L1_T12_Flex_Ext	L1_T12_Lat_Bending	L1_T12_axial_rotation	Abs_r3	Abs_r2	Abs_r1	Abs_t1	Abs_t2	neck_flexion	neck_bending	neck_rotation	arm_flex_r	arm_add_r	arm_rot_r	elbow_flex_r	pro_sup_r	wrist_flex_r	wrist_dev_r	arm_flex_l	arm_add_l	arm_rot_l	elbow_flex_l	pro_sup_l	wrist_flex_l	wrist_dev_l
      0.00000000	     -0.86007696	     -3.45970229	     87.70945333	      0.28554022	      0.43497999	      0.88695328	      2.87956138	     -0.55188660	      7.56770529	      8.89247070	      0.15520289	     24.71227994	     -4.12419140	      0.00000000	      0.07787992	      1.30567536	      4.05534062	      0.68112766	      0.01188792	     27.00099738	     -8.47901784	      0.00000000	      0.25930725	     -0.04134304	      1.47744567	      0.48155950	     -0.05498624	      1.56978603	      0.42601588	     -0.10052146	      1.56978603	      0.29636226	     -0.10052146	      1.29276496	      0.24079271	     -0.08430672	      1.20042461	      0.14816816	     -0.06404037	      1.10808426	      1.85220577	     -0.46768071	      8.21710961	      0.00000000	      0.00000000	     25.38094587	     -0.02694818	      6.51232317	     36.51751557	      2.47893535	    111.26676685	     27.88754548	     88.29381789	    -10.79624107	      2.34611547	     31.34890093	     -3.35393297	     66.58980631	     35.54127632	     58.67986831	     -6.81638094	     26.11602210
      0.01694915	     -1.04401498	     -4.03024623	     88.22565431	      0.28413168	      0.43350883	      0.88991293	      4.00092385	     -0.88543266	      6.12349921	      9.37749949	      0.16366824	     26.23057295	     -2.29764245	      0.00000000	      0.98320916	      1.54811018	      4.66558563	      0.77080230	      0.01345304	     27.23320423	     -8.21904387	      0.00000000	      0.27972926	     -0.08361071	      1.48056087	      0.51948521	     -0.11120225	      1.57309593	      0.45956720	     -0.20329109	      1.57309593	      0.31970257	     -0.20329109	      1.29549077	      0.25975659	     -0.17049897	      1.20295571	      0.15983730	     -0.12951300	      1.11042066	      1.99807814	     -0.94582112	      8.23443542	      0.00000000	      0.00000000	     25.94957389	      0.05412621	      4.92680428	     37.30669784	      2.64932344	    116.78700505	     27.14050388	     87.95527483	    -11.85335973	     -0.24075425	     31.60387101	     -2.71209192	     67.76293244	     33.89984697	     74.02186186	      5.27014673	     24.57244734
      0.03389831	     -1.12996019	     -4.49418234	     88.69771037	      0.28281274	      0.43221644	      0.89214649	      4.85877289	     -1.10611529	      4.95543190	      9.76757520	      0.17047635	     27.17568767	     -1.00986146	      0.00000000	      1.70762363	      1.69842372	      5.37743093	      0.89252353	      0.01557747	     27.24424715	     -8.35829308	      0.00000000	      0.30106252	     -0.10015284	      1.43050386	      0.55910320	     -0.13320328	      1.51991035	      0.49461561	     -0.24351162	      1.51991035	      0.34408435	     -0.24351162	      1.25169087	      0.27956665	     -0.20423167	      1.16228438	      0.17202712	     -0.15513675	      1.07287789	      2.15045946	     -1.13294897	      7.95603330	      0.00000000	      0.00000000	     26.34085906	      0.07324821	      4.29180374	     37.83847350	      2.77908463	    120.71068472	     26.58234864	     87.85705203	    -13.50387134	     -2.28748758	     31.47657416	     -2.56662097	     68.64232667	     33.73766630	     82.96221274	     11.09426630	     21.99219792
      0.05084746	     -1.11580372	     -4.82273160	     89.19300483	      0.28160640	      0.43124001	      0.89387945	      5.43103407	     -1.20011367	      3.97176479	     10.03193976	      0.17509038	     27.65294506	     -0.17191703	      0.00000000	      2.25331163	      1.74278783	      6.09830505	      1.05482002	      0.01841008	     27.07860288	     -8.70090920	      0.00000000	      0.31556614	     -0.09394374	      1.33340615	      0.58603787	     -0.12494518	      1.41674404	      0.51844360	     -0.22841481	      1.41674404	      0.36066054	     -0.22841481	      1.16673038	      0.29303471	     -0.19157008	      1.08339250	      0.18031449	     -0.14551886	      1.00005462	      2.25405735	     -1.06271039	      7.41600501	      0.00000000	      0.00000000	     26.54691964	     -0.09100933	      4.41627953	     38.08194547	      2.78524354	    122.72353737	     26.07900329	     87.93289904	    -15.10717168	     -3.88703291	     31.08336029	     -2.85641899	     69.17164923	     34.37088004	     85.93079563	     13.06924859	     20.16438961
      0.06779661	     -1.04205255	     -4.98174725	     89.48251946	      0.28079879	      0.43045762	      0.89476469	      5.68587970	     -1.16326651	      3.69778193	     10.15052564	      0.17716009	     27.73300281	     -0.14600825	      0.00000000	      2.55067573	      1.70770568	      6.30791948	      1.24588622	      0.02174482	     27.02892229	     -8.72859541	      0.00000000	      0.31942336	     -0.07667959	      1.24509471	      0.59320112	     -0.10198385	      1.32291313	      0.52478064	     -0.18643875	      1.32291313	      0.36506896	     -0.18643875	      1.08945787	      0.29661653	     -0.15636502	      1.01163945	      0.18251851	     -0.11877668	      0.93382103	      2.28160913	     -0.86741485	      6.92484325	      0.00000000	      0.00000000	     26.66491302	     -0.22341050	      4.65076690	     38.11026341	      2.48869230	    122.47020628	     26.08326126	     88.02698374	    -15.89756946	     -4.54462515	     30.36088815	     -3.54523719	     68.75970375	     35.83246133	     86.09364453	     13.28103155	     19.57649083
      0.08474576	     -0.87907825	     -5.21635601	     90.40381500	      0.27889189	      0.42973379	      0.89503450	      5.80871677	     -1.18421831	      1.96818063	     10.09697891	      0.17622553	     27.88572447	      1.04664341	      0.00000000	      2.97255466	      1.63998687	      7.79686846	      1.53593771	      0.02680717	     26.71604002	     -9.76321511	      0.00000000	      0.34243184	     -0.02911876	      0.92697967	      0.63593017	     -0.03872795	      0.98491590	      0.56258127	     -0.07079936	      0.98491590	      0.39136535	     -0.07079936	      0.81110721	      0.31798221	     -0.05937898	      0.75317098	      0.19566555	     -0.04510496	      0.69523475	      2.44595638	     -0.32939726	      5.15558284	      0.00000000	      0.00000000	     26.79358246	     -0.03492654	      7.09497215	     37.91686878	      2.60283502	    122.71166238	     25.37230721	     88.14277075	    -17.68164063	     -6.44029155	     27.75545432	     -4.33815720	     62.35704390	     38.08115188	     87.25179759	     12.98438381	     21.00313109
      0.10169492	     -0.81096754	     -5.36048346	     91.03474679	      0.27769124	      0.42908399	      0.89498454	      5.83690430	     -1.18522455	      1.29805697	     10.02707037	      0.17500539	     27.81976125	      1.04426786	      0.00000000	      3.26928233	      1.63452534	      8.39836994	      1.82898532	      0.03192182	     26.62859348	    -10.00381110	      0.00000000	      0.35948477	     -0.01332388	      0.73408343	      0.66759917	     -0.01772077	      0.77996364	      0.59059753	     -0.03239569	      0.77996364	      0.41085515	     -0.03239569	      0.64232300	      0.33381756	     -0.02717007	      0.59644278	      0.20540960	     -0.02063870	      0.55056257	      2.56776378	     -0.15072245	      4.08275180	      0.00000000	      0.00000000	     26.79621238	      0.00820266	      7.66160375	     37.40802320	      2.09336287	    120.35470404	     25.43474193	     88.02439377	    -18.52624906	     -7.39616213	     25.93400788	     -5.02054967	     58.82894023	     39.87416731	     87.07541847	     11.63879784	     20.53991901
      0.11864407	     -0.49959733	     -5.46846827	     91.43699807	      0.27676000	      0.42830264	      0.89417161	      5.77789551	     -0.94723466	      0.38173843	      9.86742759	      0.17221910	     27.93073040	      1.82336183	      0.00000000	      3.51893185	      1.34196025	      7.92381219	      2.20393083	      0.03846585	     27.18957849	     -8.96905719	      0.00000000	      0.37828728	      0.03502612	      0.52975173	      0.70251730	      0.04658473	      0.56286121	      0.62148816	      0.08516250	      0.56286121	      0.43234453	      0.08516250	      0.46353276	      0.35127756	      0.07142525	      0.43042328	      0.21615335	      0.05425545	      0.39731380	      2.70206818	      0.39622242	      2.94632019	      0.00000000	      0.00000000	     26.86219986	      0.30700358	      8.94144194	     36.57563711	      0.88513237	    114.55890037	     26.71866531	     88.19784414	    -16.52096885	     -7.60474643	     23.31309570	     -5.39259441	     52.90599612	     42.20474415	     87.15250115	     10.06181115	     21.79247762
      0.13559322	      0.04952257	     -5.47210123	     92.68574066	      0.27448896	      0.42760634	      0.89295342	      5.30734623	     -0.41785109	     -0.02425850	      9.24862887	      0.16141903	     27.66128487	      0.64184948	      0.00000000	      3.69538480	      0.88663919	      9.84042192	      2.49556573	      0.04355584	     27.38791521	    -10.09315191	      0.00000000	      0.39136795	      0.11084305	      0.20686523	      0.72680943	      0.14742126	      0.21979431	      0.64297841	      0.26950379	      0.21979431	      0.44729443	      0.26950379	      0.18100708	      0.36342428	      0.22603115	      0.16807800	      0.22362765	      0.17169588	      0.15514892	      2.79550215	      1.25387874	      1.15052236	      0.00000000	      0.00000000	     26.86530774	      0.39266727	     10.29181244	     35.05263759	     -1.34157539	    104.58229361	     29.55791805	     88.15037867	     -9.40445891	     -5.56407875	     21.36438724	     -5.28009580	     48.74224340	     43.99767724	     86.96809873	      8.30596697	     23.08762458
      0.15254237	      0.22991490	     -5.41135163	     93.19249264	      0.27384869	      0.42702646	      0.89144691	      4.89666752	     -0.15915422	      0.50060319	      8.76276742	      0.15293914	     27.59943777	     -0.66683610	      0.00000000	      3.66417404	      0.72074990	     10.67447650	      2.63397543	      0.04597154	     27.66685550	    -10.65937617	      0.00000000	      0.39763093	      0.11755968	      0.14624687	      0.73844040	      0.15635438	      0.15538730	      0.65326785	      0.28583461	      0.15538730	      0.45445239	      0.28583461	      0.12796601	      0.36924008	      0.23972771	      0.11882558	      0.22720631	      0.18209995	      0.10968515	      2.84023796	      1.32985864	      0.81338124	      0.00000000	      0.00000000	     27.06104116	      0.51543198	      9.62811860	     32.23640150	     -3.51775108	     93.07023487	     32.23743780	     87.39362613	     -2.09557222	     -1.57732042	     20.50923269	     -5.17325632	     47.39443445	     44.87602116	     86.51149134	      7.30118565	     22.62948819
      0.16949153	      0.44497675	     -5.27009953	     93.92359181	      0.27315718	      0.42676569	      0.88985640	      4.33037432	      0.15152059	      0.86527527	      8.16034960	      0.14242497	     27.49996058	     -2.08395935	      0.00000000	      3.61540175	      0.50289051	     11.20895432	      2.85379472	      0.04980811	     28.12552958	    -10.42616911	      0.00000000	      0.40289189	      0.13199988	      0.01909497	      0.74821053	      0.17555984	      0.02028841	      0.66191109	      0.32094452	      0.02028841	      0.46046514	      0.32094452	      0.01670810	      0.37412541	      0.26917416	      0.01551467	      0.23021243	      0.20446782	      0.01432123	      2.87781648	      1.49320908	      0.10620052	      0.00000000	      0.00000000	     27.10756461	      0.61598374	      9.39989253	     29.73936056	     -4.54694227	     86.16549151	     33.38657293	     83.60347426	      3.57771056	      1.77713219	     19.65625352	     -5.03993184	     46.34742978	     45.52572086	     85.70948137	      6.06185038	     22.42356292
